<svg xmlns="http://www.w3.org/2000/svg" viewBox="0 0 436.73 140.49"><defs><style>.cls-1{fill:#fff;}</style></defs><title>Asset 9</title><g id="Layer_2" data-name="Layer 2"><g id="Layer_1-2" data-name="Layer 1"><path class="cls-1" d="M435.78,139.8q-212.07,0-424.16-.18c-3.77,0-9,3.2-11.62-2.66,2.74-7,4.74-14.36,11.73-18.84,5.5-3.53,5.71-9.46,7-14.92,6.92-28.62,24.38-48.62,52-60.31,6.29-2.66,12.69-4.61,19.67-3.18a35.08,35.08,0,0,0,25.79-.13c12.27,1,19.78-5.09,27.53-14.11C180.41-17.24,251.74-4,270,48.73c3.39,9.82,7.44,13.47,18.2,12.38,33.84-3.43,60.36,9.6,79.38,36.76,5,7.08,10.27,8.29,18.33,6.7,15.89-3.14,30.8-1.27,42.77,11C435.4,122.51,438.42,130.32,435.78,139.8Z"/><path class="cls-1" d="M90.07,43.48c8.71-4.53,17.42-4.5,26.13,0C107.5,47.82,98.79,47.77,90.07,43.48Z"/></g></g></svg>