<svg xmlns="http://www.w3.org/2000/svg" viewBox="0 0 799.83 419.87"><defs><style>.cls-1{fill:#fff;}</style></defs><title>Asset 10</title><g id="Layer_2" data-name="Layer 2"><g id="Layer_1-2" data-name="Layer 1"><path class="cls-1" d="M130.7,175c6.14-.56,13.57.67,21,1.2,2.58.19,3.39-.49,3.88-2.89,1.5-7.32,3.17-14.61,7-21.21,13-22.43,32.22-34.75,58.21-36.12,8.67-.45,17.36-.27,25.51,3.31,2.83,1.24,3.85,0,4.73-2.38a160,160,0,0,1,25.78-45.25,183.06,183.06,0,0,1,42-38.62,192.93,192.93,0,0,1,35.54-19,188.41,188.41,0,0,1,47-12.3A186.24,186.24,0,0,1,434.26.2C473,2.29,508.43,13.62,539.89,37a191.77,191.77,0,0,1,41.85,42.32A162,162,0,0,1,611,151c.57,3.85,2.09,5.68,6,6.56,19.41,4.36,38.09,10.74,54.79,21.83,8.25,5.49,17.13,10.5,23,18.84,4.22,6.05,9.61,4.43,15.14,3.6,16.54-2.49,31.93,1,46.6,8.73,15.93,8.41,28.42,20.26,36.09,36.62a75.48,75.48,0,0,1,6,46.55c-5.73,32.27-35.17,58.67-66.69,63.88a67,67,0,0,1-16,.25c-4-.3-6.45,1.43-8.33,4.3C700.24,373.33,690.5,382,680,390c-19.22,14.52-40.94,23.42-64.5,27.44a155.43,155.43,0,0,1-48.59,1,169.93,169.93,0,0,1-50.36-15c-10.6-5.14-20.7-11.47-29.18-19.82-3.8-3.75-6.82-3.85-11.26-1.08-17.69,11-37.05,16.61-57.93,17.55-20.2.92-39.65-1.81-58.16-10.16-2.19-1-3.34,0-4.79,1.22-11.82,10.17-24.73,18.44-39.85,22.91-28.91,8.53-55.68,3.66-81-12.13a93.63,93.63,0,0,1-35.16-39.08c-1.15-2.34-2.22-3.07-5-2a180.24,180.24,0,0,1-53.1,12.36c-28.37,2.09-55.43-2.67-80.82-15-19.81-9.62-37.47-22.69-48.39-42.43-15.38-27.8-16.58-56.06.74-83.71,15.13-24.14,37.28-39.21,63.9-48.31A157.29,157.29,0,0,1,130.7,175Z"/><path class="cls-1" d="M794.27,280c-.7,27.79-13.89,48.17-37.29,62.43-11.62,7.08-24.35,11.51-37.91,10.11-9.09-.94-13.41,3-18.19,9.57-9.36,12.94-21.8,22.79-35.44,31C637.57,410,607,416.09,575,413.7c-34.25-2.55-64.53-15.13-89.56-39.15-2.15-2.06-3.42-2.43-6.17-.51a113.84,113.84,0,0,1-53.6,20c-22.86,2.53-44.75-.56-65.62-10.21-3.36-1.55-5.15-.17-7.36,1.91-13.51,12.67-29.09,21.61-47.4,25.17-27.63,5.36-52.36-1.8-74.69-18.23a82.61,82.61,0,0,1-28-36.3c-1.3-3.21-2.71-4.16-5.94-2.69a158.67,158.67,0,0,1-77.73,14.06C85.19,365.48,55,354.34,30.28,330.41c-27.43-26.6-34.06-71.34-7.06-104,19-23,43.53-36.07,72.15-42.34a150.44,150.44,0,0,1,60.81-1.26c3.21.61,3.86-.74,4.17-3.67,2.54-23.91,14.56-41.44,36.3-51.79,17.23-8.2,34.91-9.13,52.47-.75,3.37,1.61,4.19.48,5.18-2.46a162.22,162.22,0,0,1,43.83-67.55c28.12-26.24,61-43.09,99.22-48.57,40.06-5.75,78.76-1,114.76,18.2,50.82,27.11,83.17,68.38,93.69,125.71,1.69,9.25,1.74,9,11.31,11.2,25.3,5.86,48.58,16.09,68.47,33.13,2.88,2.47,5.09,5.69,7.77,8.42,3.35,3.43,7.08,4.49,12.16,3.51,24.55-4.71,46.13,2.06,64.63,18.5C786,240.79,794.47,258.43,794.27,280Z"/></g></g></svg>